<?xml version="1.0" encoding="UTF-8" standalone="no"?><!-- Generator: Gravit.io --><svg xmlns="http://www.w3.org/2000/svg" xmlns:xlink="http://www.w3.org/1999/xlink" style="isolation:isolate" viewBox="0 0 213.08 213.08" width="213.08pt" height="213.08pt"><defs><clipPath id="_clipPath_PyaoCuYZ2Ne3d3hfY512qYVtKlpmySqd"><rect width="213.08" height="213.08"/></clipPath></defs><g clip-path="url(#_clipPath_PyaoCuYZ2Ne3d3hfY512qYVtKlpmySqd)"><g><path d=" M 106.543 16.505 L 125.04 1.619 L 137.338 21.934 L 159.808 14.274 L 164.418 37.565 L 188.157 38.057 L 184.516 61.521 L 206.658 70.104 L 195.211 90.903 L 213.08 106.536 L 195.211 122.175 L 206.658 142.975 L 184.516 151.559 L 188.157 175.023 L 164.418 175.513 L 159.808 198.806 L 137.338 191.146 L 125.04 211.461 L 106.543 196.575 L 88.042 211.461 L 75.75 191.146 L 53.273 198.806 L 48.662 175.513 L 24.925 175.023 L 28.565 151.559 L 6.43 142.975 L 17.87 122.175 L 0 106.536 L 17.87 90.903 L 6.43 70.104 L 28.565 61.521 L 24.925 38.057 L 48.662 37.565 L 53.273 14.274 L 75.75 21.934 L 88.042 1.619 L 106.543 16.505 Z " fill="rgb(129,153,80)"/><g><path d=" M 115.966 98.342 C 126.731 83.705 146.774 74.512 168.847 74.589 C 165.814 77.331 162.69 80.441 159.469 83.869 C 149.944 91.586 136.399 107.159 126.4 122.26 C 119.991 131.998 114.119 143.198 111.688 151.243 C 103.009 132.632 105.155 112.946 115.966 98.342 Z " fill="rgb(254,254,254)"/><path d=" M 163.301 76.908 C 144.217 78.284 127.149 86.715 117.675 99.599 C 108.038 112.618 105.874 129.386 111.555 145.336 C 114.452 138.183 119.178 129.37 124.627 121.093 C 134.494 106.196 148.269 90.214 158.134 82.221 C 159.882 80.344 161.608 78.569 163.301 76.908 Z  M 112.389 156.254 L 109.356 151.624 L 109.426 151.399 C 101.035 132.781 102.821 112.532 114.264 97.081 C 125.426 81.902 146.236 72.469 168.573 72.469 L 174.078 72.469 L 170.268 76.161 C 167.372 78.784 164.342 81.778 161.013 85.321 C 151.24 93.267 137.818 108.859 128.168 123.429 C 121.765 133.154 116.414 143.565 114.016 150.912 L 114.162 151.137 L 113.574 152.334 L 112.389 156.254 Z " fill="rgb(129,153,80)"/><path d=" M 167.447 75.138 C 146.367 75.447 126.888 84.399 116.398 98.663 C 105.66 113.174 103.903 132.164 111.599 149.74 C 114.128 142.187 119.531 131.709 125.952 121.963 C 135.728 107.191 149.376 91.353 159.127 83.453 C 162.06 80.328 164.803 77.578 167.447 75.138 Z  M 111.861 152.523 L 111.094 151.328 L 111.112 151.284 C 102.685 133.05 104.325 113.158 115.532 98.022 C 126.4 83.235 146.723 74.048 168.573 74.048 L 170.239 74.052 L 169.205 74.989 C 166.269 77.647 163.213 80.677 159.866 84.239 C 150.13 92.13 136.575 107.865 126.855 122.565 C 120.168 132.706 114.604 143.623 112.279 151.137 L 112.322 151.208 L 111.861 152.523 Z " fill="rgb(254,254,254)"/><path d=" M 161.883 77.553 C 143.675 79.2 127.239 87.499 118.105 99.92 C 108.899 112.363 106.595 128.435 111.599 143.797 C 114.546 136.845 119.029 128.616 124.179 120.798 C 134.064 105.863 147.885 89.832 157.794 81.804 C 159.174 80.319 160.541 78.899 161.883 77.553 Z  M 112.424 157.333 L 108.734 151.572 L 108.815 151.356 C 100.48 132.632 102.333 112.285 113.829 96.759 C 125.082 81.445 146.061 71.927 168.573 71.927 L 175.732 71.947 L 170.624 76.563 C 167.744 79.173 164.729 82.161 161.41 85.691 C 151.621 93.653 138.221 109.217 128.624 123.734 C 122.323 133.294 117.011 143.582 114.592 150.88 L 114.609 150.91 L 113.862 153.225 L 112.424 157.333 Z " fill="rgb(129,153,80)"/><path d=" M 129.837 125.035 C 139.881 109.884 151.139 94.206 159.359 83.995 L 159.251 84.08 C 162.476 80.655 165.789 77.369 168.831 74.631 C 168.98 95.875 174.813 114.405 161.532 132.386 C 150.7 146.998 132.746 155.155 112.991 152.077 C 113.448 152.111 112.552 152.001 112.991 152.077 C 117.583 144.139 123.54 134.651 129.837 125.035 Z " fill="rgb(254,254,254)"/><path d=" M 116.448 150.372 C 133.562 152.013 149.707 144.781 159.829 131.121 C 169.51 118.01 168.552 104.742 167.441 89.376 C 167.208 86.129 166.967 82.807 166.83 79.407 C 164.945 81.227 162.977 83.223 161.001 85.316 L 161.013 85.325 C 152.951 95.341 141.683 111.005 131.606 126.207 C 125.698 135.228 120.499 143.515 116.448 150.372 Z  M 121.241 154.843 C 118.884 154.843 116.494 154.685 114.11 154.377 L 114.094 154.407 L 112.665 154.172 L 109.662 153.719 L 110.769 151.719 L 110.917 149.931 L 111.787 149.927 C 116.009 142.699 121.615 133.721 128.064 123.873 C 138.211 108.561 149.571 92.775 157.706 82.665 L 157.831 82.766 L 157.706 82.626 C 161.066 79.056 164.422 75.747 167.41 73.055 L 170.917 69.894 L 170.951 74.615 C 170.985 79.552 171.337 84.39 171.672 89.07 C 172.796 104.602 173.857 119.271 163.237 133.643 C 153.254 147.117 137.949 154.841 121.241 154.843 Z " fill="rgb(129,153,80)"/><path d=" M 113.855 151.666 C 116.315 152.006 118.801 152.187 121.238 152.187 C 137.097 152.187 151.621 144.845 161.093 132.063 C 171.126 118.478 170.106 104.285 169.021 89.258 C 168.706 84.916 168.383 80.436 168.3 75.835 C 165.616 78.313 162.683 81.226 159.765 84.319 L 159.783 84.333 C 151.674 94.398 140.376 110.111 130.288 125.329 C 123.74 135.336 118.073 144.413 113.855 151.666 Z  M 121.238 153.265 C 118.486 153.265 115.681 153.046 112.91 152.607 L 112.894 152.607 L 112.254 152.463 L 112.354 152.205 L 112.329 152.001 L 112.371 151.51 L 112.694 151.51 C 116.94 144.186 122.704 134.943 129.39 124.739 C 139.466 109.528 150.76 93.825 158.88 83.735 L 158.864 83.713 C 162.161 80.198 165.483 76.921 168.467 74.231 L 169.361 73.423 L 169.368 74.627 C 169.402 79.612 169.751 84.477 170.09 89.178 C 171.201 104.414 172.235 118.8 161.963 132.706 C 152.283 145.764 137.44 153.265 121.238 153.265 Z " fill="rgb(254,254,254)"/><path d=" M 117.345 149.911 C 134.271 151.223 149.555 144.073 159.39 130.799 C 168.959 117.844 167.96 104.03 166.905 89.41 C 166.698 86.552 166.485 83.63 166.34 80.634 C 164.762 82.185 163.144 83.836 161.538 85.529 L 161.437 85.663 C 153.399 95.643 142.137 111.29 132.057 126.501 C 126.348 135.223 121.308 143.246 117.345 149.911 Z  M 121.238 155.387 C 118.358 155.387 115.445 155.156 112.578 154.701 L 109.391 153.997 L 110.257 151.333 L 110.42 149.389 L 111.477 149.389 C 115.681 142.196 121.246 133.303 127.616 123.576 C 137.295 108.965 148.104 93.887 156.161 83.736 L 156.075 83.625 L 157.318 82.261 C 160.627 78.73 163.995 75.407 167.045 72.657 L 171.449 68.679 L 171.491 74.613 C 171.523 79.58 171.87 84.383 172.207 89.026 C 173.345 104.651 174.42 119.413 163.67 133.967 C 153.576 147.579 138.115 155.387 121.238 155.387 Z " fill="rgb(129,153,80)"/><path d=" M 106.547 89.371 C 93.87 72.124 70.237 61.295 44.245 61.382 C 47.817 64.614 51.495 68.277 55.286 72.322 C 66.516 81.41 82.471 99.746 94.249 117.554 C 101.807 129.019 108.725 142.222 111.587 151.7 C 121.817 129.77 119.29 106.575 106.547 89.371 Z " fill="rgb(254,254,254)"/><path d=" M 49.766 63.654 C 52.026 65.85 54.365 68.238 56.835 70.87 C 68.227 80.069 84.432 98.864 96.018 116.383 C 102.664 126.466 108.398 137.231 111.762 145.8 C 118.921 126.606 116.464 106.321 104.844 90.634 C 93.404 75.072 72.631 64.994 49.766 63.654 Z  M 110.887 156.708 L 109.681 152.778 L 109.076 151.677 L 109.263 151.374 C 106.455 142.663 100.091 130.271 92.476 118.722 C 81.104 101.526 65.261 83.124 53.953 73.969 C 49.834 69.605 46.262 66.067 42.819 62.954 L 38.759 59.278 L 44.236 59.261 C 70.759 59.261 95.173 70.316 108.258 88.116 C 121.677 106.235 123.752 130.007 113.85 151.854 L 113.903 152.031 L 110.887 156.708 Z " fill="rgb(129,153,80)"/><path d=" M 45.64 61.926 C 48.801 64.838 52.097 68.13 55.679 71.95 C 67.113 81.201 83.18 99.851 94.7 117.247 C 102.32 128.816 108.734 141.268 111.674 150.193 C 120.88 129.397 118.833 106.879 106.111 89.69 C 93.703 72.807 70.61 62.228 45.64 61.926 Z  M 111.41 152.97 L 110.917 151.739 L 110.992 151.604 C 108.258 142.717 101.686 129.809 93.799 117.847 C 82.344 100.529 66.359 81.98 54.941 72.736 C 50.935 68.47 47.335 64.902 43.88 61.78 L 42.844 60.847 L 44.542 60.84 C 70.265 60.84 94.19 71.647 106.977 89.049 C 120.168 106.865 122.098 130.277 112.164 151.739 L 112.169 151.755 L 112.072 151.925 L 111.41 152.97 Z " fill="rgb(254,254,254)"/><path d=" M 51.188 64.291 C 53.118 66.193 55.116 68.251 57.225 70.498 C 68.609 79.681 84.833 98.503 96.469 116.077 C 102.834 125.74 108.307 135.883 111.732 144.271 C 118.21 125.667 115.598 106.075 104.404 90.952 C 93.348 75.904 73.302 65.965 51.188 64.291 Z  M 110.979 157.6 L 108.571 151.592 L 108.693 151.374 C 105.867 142.704 99.545 130.417 92.03 119.016 C 80.685 101.869 64.884 83.517 53.607 74.387 C 49.432 69.967 45.851 66.423 42.458 63.356 L 37.348 58.747 L 44.534 58.719 C 70.933 58.719 95.508 69.859 108.688 87.795 C 122.19 106.029 124.306 129.961 114.401 151.942 L 114.425 152.042 L 113.2 154.106 L 110.979 157.6 Z " fill="rgb(129,153,80)"/><path d=" M 90.197 120.817 C 78.37 102.962 65.1 84.494 55.415 72.469 L 55.546 72.568 C 51.746 68.527 47.84 64.66 44.261 61.431 C 44.082 86.46 37.21 108.297 52.862 129.473 C 65.617 146.701 86.776 156.313 110.05 152.683 C 109.517 152.727 110.572 152.591 110.05 152.683 C 104.642 143.328 97.628 132.157 90.197 120.817 Z " fill="rgb(254,254,254)"/><path d=" M 46.276 66.204 C 46.118 70.493 45.816 74.684 45.516 78.773 C 44.204 96.954 43.067 112.655 54.569 128.21 C 66.683 144.571 86.043 153.15 106.607 150.993 C 101.773 142.789 95.534 132.834 88.425 121.981 C 76.585 104.11 63.302 85.644 53.761 73.799 L 53.777 73.783 C 51.241 71.095 48.704 68.527 46.276 66.204 Z  M 100.332 155.564 C 80.764 155.564 62.842 146.515 51.158 130.734 C 38.727 113.916 39.968 96.695 41.286 78.467 C 41.684 72.949 42.099 67.241 42.141 61.416 L 42.173 56.691 L 45.683 59.855 C 49.23 63.057 53.177 66.949 57.092 71.112 L 57.066 71.141 C 66.683 83.08 80.056 101.664 91.966 119.648 C 99.611 131.318 106.257 141.96 111.252 150.529 L 112.134 150.529 L 112.3 152.337 L 113.469 154.356 L 108.961 155.032 L 108.931 154.988 C 106.06 155.371 103.172 155.564 100.332 155.564 Z " fill="rgb(129,153,80)"/><path d=" M 44.792 62.641 C 44.7 68.123 44.319 73.469 43.942 78.656 C 42.662 96.38 41.449 113.123 53.294 129.15 C 64.471 144.248 81.614 152.902 100.332 152.902 C 103.255 152.902 106.23 152.691 109.186 152.263 C 104.202 143.689 97.496 132.942 89.749 121.111 C 77.865 103.182 64.554 84.673 54.996 72.804 L 55.011 72.791 C 51.521 69.08 48.006 65.595 44.792 62.641 Z  M 100.332 153.984 C 81.265 153.984 63.807 145.166 52.423 129.795 C 40.337 113.443 41.568 96.509 42.869 78.576 C 43.266 73.034 43.682 67.302 43.723 61.426 L 43.731 60.224 L 44.626 61.031 C 48.143 64.205 52.058 68.067 55.936 72.196 L 55.915 72.223 C 65.48 84.115 78.779 102.608 90.649 120.511 C 98.524 132.543 105.327 143.455 110.34 152.111 L 110.685 152.111 L 110.739 152.601 L 110.73 152.777 L 110.914 153.099 L 110.312 153.173 L 110.151 153.217 L 109.768 153.286 L 109.768 153.272 C 106.621 153.747 103.448 153.984 100.332 153.984 Z " fill="rgb(254,254,254)"/><path d=" M 46.768 67.427 C 46.593 71.428 46.312 75.286 46.06 78.808 C 44.805 96.143 43.623 112.5 54.999 127.89 C 66.837 143.882 85.839 152.325 105.713 150.536 C 100.95 142.49 94.863 132.791 87.977 122.274 C 76.107 104.372 62.838 85.923 53.343 74.133 L 53.23 73.992 C 51.073 71.707 48.888 69.487 46.768 67.427 Z  M 100.332 156.106 C 80.591 156.106 62.507 146.975 50.719 131.058 C 38.168 114.076 39.423 96.762 40.751 78.431 C 41.153 72.827 41.56 67.172 41.601 61.412 L 41.642 55.48 L 46.048 59.457 C 49.63 62.69 53.588 66.593 57.482 70.744 L 58.716 72.06 L 58.611 72.198 C 68.108 84.137 80.931 102.015 92.418 119.338 C 100.029 130.967 106.625 141.53 111.564 149.989 L 112.244 149.989 L 112.826 152.173 L 114.131 154.491 L 110.083 155.371 L 109.94 155.392 L 108.079 155.727 L 108.061 155.643 C 105.49 155.95 102.896 156.106 100.332 156.106 Z " fill="rgb(129,153,80)"/></g></g></g></svg>